#define cal2_width 21
#define cal2_height 16
static unsigned char cal2_bits[] = {
   0x00, 0x00, 0x00, 0x80, 0x24, 0x09, 0x80, 0x24, 0x09, 0x00, 0x00, 0x00,
   0x92, 0x24, 0x09, 0x92, 0x24, 0x09, 0x00, 0x00, 0x00, 0x92, 0x24, 0x09,
   0x92, 0x24, 0x09, 0x00, 0x00, 0x00, 0x92, 0x24, 0x09, 0x92, 0x24, 0x09,
   0x00, 0x00, 0x00, 0x92, 0x24, 0x00, 0x92, 0x24, 0x00, 0x00, 0x00, 0x00};
