#define taglog_width 16
#define taglog_height 16
#define taglog_x_hot 7
#define taglog_y_hot 8
static unsigned char taglog_bits[] = {
   0xc0, 0x01, 0x80, 0x00, 0xec, 0x1b, 0x1c, 0x1c, 0x08, 0x08, 0x0c, 0x14,
   0x1a, 0x22, 0x72, 0x21, 0xc2, 0x20, 0x02, 0x21, 0x02, 0x22, 0x04, 0x14,
   0x08, 0x08, 0x10, 0x04, 0xe0, 0x03, 0x00, 0x00};
